# AST/ASF file generated using VICON BodyLanguage
# -----------------------------------------------
:version 1.10
:name VICON
:units
  mass 1.0
  length 0.45
  angle deg
:documentation
   .ast/.asf automatically generated from VICON data using
   VICON BodyBuilder and BodyLanguage model FoxedUp or BRILLIANT.MOD
:root
   order TX TY TZ RX RY RZ
   axis XYZ
   position 0 0 0  
   orientation 0 -0 0 
:bonedata
  begin
     id 1 
     name lhipjoint
     direction 0.515797 -0.759363 0.396637 
     length 2.47888 
     axis 0 -0 0  XYZ
  end
  begin
     id 2 
     name lfemur
     direction 0.34202 -0.939693 0  
     length 6.81885  
     axis 0 -0 20  XYZ
    dof rx ry rz
    limits (-160.0 20.0)
           (-70.0 70.0)
           (-60.0 70.0)
  end
  begin
     id 3 
     name ltibia
     direction 0.342037 -0.939687 0   
     length 7.89258   
     axis 0 -0 20   XYZ
    dof rx
    limits (-10.0 170.0)
  end
  begin
     id 4 
     name lfoot
     direction 0.173497 -0.476678 0.861787   
     length 2.51543   
     axis -90 -1.13533e-015 20   XYZ
    dof rx rz
    limits (-45.0 90.0)
           (-70.0 20.0)
  end
  begin
     id 5 
     name ltoes
     direction 1.53564e-011 -4.21897e-011 1   
     length 1.21388   
     axis -90 -1.13533e-015 20   XYZ
    dof rx
    limits (-90.0 20.0)
  end
  begin
     id 6 
     name rhipjoint
     direction -0.489454 -0.772941 0.403729   
     length 2.43534  
     axis 0 -0 0  XYZ 
  end
  begin
     id 7 
     name rfemur
     direction -0.34202 -0.939693 0   
     length 7.10357   
     axis 0 -0 -20   XYZ
    dof rx ry rz
    limits (-160.0 20.0)
           (-70.0 70.0)
           (-70.0 60.0)
  end
  begin
     id 8 
     name rtibia
     direction -0.34202 -0.939693 0   
     length 9.16127   
     axis 0 -0 -20   XYZ
    dof rx
    limits (-10.0 170.0)
 end
 begin
     id 9 
     name rfoot
     direction -0.270974 -0.748671 0.605033   
     length 1.74894  
     axis -90 1.13533e-015 -20   XYZ
    dof rx rz
    limits (-45.0 90.0)
           (-20.0 70.0)
  end
  begin
     id 10 
     name rtoes
     direction -1.53557e-011 -4.21759e-011 1   
     length 0.787585   
     axis -90 1.13533e-015 -20   XYZ
    dof rx
    limits (-90.0 20.0)
  end
  begin
     id 11 
     name lowerback
     direction -0.0140249 0.999561 0.0260968   
     length 2.16963   
     axis 0 -0 0   XYZ
    dof rx ry rz
    limits (-20.0 45.0)
           (-30.0 30.0)
           (-30.0 30.0)
  end
  begin
     id 12 
     name upperback
     direction 0.00860018 0.999959 -0.002711   
     length 2.1726   
     axis 0 -0 0   XYZ
    dof rx ry rz
    limits (-20.0 45.0)
           (-30.0 30.0)
           (-30.0 30.0)
  end
  begin
     id 13 
     name thorax
     direction 0.015211 0.999782 -0.0143191   
     length 2.17061   
     axis 0 -0 0   XYZ
    dof rx ry rz
    limits (-20.0 45.0)
           (-30.0 30.0)
           (-30.0 30.0)
  end
  begin
     id 14 
     name lowerneck
     direction -0.0140143 0.999447 0.030145   
     length 2.26749   
     axis 0 -0 0   XYZ
    dof rx ry rz
    limits (-20.0 45.0)
           (-30.0 30.0)
           (-30.0 30.0)
  end
  begin
     id 15 
     name upperneck
     direction 0.118062 0.961438 -0.248392   
     length 2.22728   
     axis 0 -0 0   XYZ
    dof rx ry rz
    limits (-20.0 45.0)
           (-30.0 30.0)
           (-30.0 30.0)
  end
  begin
     id 16
     name head
     direction 0.0431885 0.9954 -0.085514  
     length 2.28786  
     axis 0 -0 0   XYZ
    dof rx ry rz
    limits (-20.0 45.0)
           (-30.0 30.0)
           (-30.0 30.0)
  end
  begin
     id 17 
     name lclavicle
     direction 0.912126 0.409548 0.0172323  
     length 4.31571  
     axis 0 -0 0   XYZ
    dof ry rz
    limits (-20.0 10.0)
           (0.0 20.0)
  end
  begin
     id 18 
     name lhumerus
     direction 1 -4.48977e-011 1.93091e-027   
     length 5.13658   
     axis 180 -30 -90   XYZ
    dof rx ry rz
    limits (-60.0 90.0)
           (-90.0 90.0)
           (-90.0 90.0)
  end
  begin
     id 19
     name lradius
     direction 1 -4.48916e-011 6.84018e-027   
     length 3.22473   
     axis 180 -30 -90   XYZ
    dof rx
    limits (-10.0 170.0)
  end
  begin
     id 20
     name lwrist
     direction 1 -4.48987e-011 7.01981e-027   
     length 1.61236   
     axis -4.37994e-015 90 90   XYZ
    dof ry
    limits (-180.0 0.0)
 end
  begin
     id 21 
     name lhand
     direction 1 -4.49037e-011 1.40335e-026   
     length 0.936406   
     axis -8.96029e-015 90 90   XYZ
    dof rx rz
    limits (-90.0 90.0)
           (-45.0 45.0)
  end
  begin
     id 22 
     name lfingers
     direction 1 -4.48886e-011 2.8104e-026   
     length 0.754955   
     axis -1.79203e-014 90 90   XYZ
    dof rx
    limits (0.0 90.0)
  end
  begin
     id 23
     name lthumb
     direction 0.707107 -6.34937e-011 0.707107   
     length 1.08397   
     axis -90 45 -4.48555e-014   XYZ
    dof rx rz
    limits (-45.0 45.0)
           (-45.0 45.0)
  end
  begin
     id 24 
     name rclavicle
     direction -0.947962 0.317997 0.0156638   
     length 4.86918  
     axis 0 -0 0   XYZ 
    dof ry rz
    limits (-10.0 20.0)
           (-20.0 0.0)
  end
  begin
     id 25 
     name rhumerus
     direction -1 -4.48951e-011 2.80534e-018  
     length 5.60911   
     axis 180 30 90   XYZ
    dof rx ry rz
    limits (-90.0 60.0)
           (-90.0 90.0)
           (-90.0 90.0)
  end
  begin
     id 26 
     name rradius
     direction -1 -4.4898e-011 2.11315e-027   
     length 3.38704   
     axis 180 30 90   XYZ
    dof rx
    limits (-10.0 170.0)
  end
  begin
     id 27 
     name rwrist
     direction -1 -4.48933e-011 7.02314e-027   
     length 1.69352   
     axis -4.37994e-015 -90 -90   XYZ
    dof ry
    limits (-180.0 0.0)
  end
  begin
     id 28
     name rhand
     direction -1 -4.48937e-011 1.40458e-026   
     length 0.755878   
     axis -8.96029e-015 -90 -90   XYZ
    dof rx rz
    limits (-90.0 90.0)
           (-45.0 45.0)
  end
  begin
     id 29
     name rfingers
     direction -1 -4.4901e-011 2.80737e-026   
     length 0.609409   
     axis -1.79203e-014 -90 -90   XYZ
    dof rx
    limits (0.0 90.0)
  end
  begin
     id 30
     name rthumb
     direction -0.707107 -6.34968e-011 0.707107   
     length 0.874992   
     axis -90 -45 4.48555e-014   XYZ
    dof rx rz
    limits (-45.0 45.0)
           (-45.0 45.0)
  end
:hierarchy
  begin
    root lhipjoint rhipjoint lowerback
    lhipjoint lfemur
    lfemur ltibia
    ltibia lfoot
    lfoot ltoes
    rhipjoint rfemur
    rfemur rtibia
    rtibia rfoot
    rfoot rtoes
    lowerback upperback
    upperback thorax
    thorax lowerneck lclavicle rclavicle
    lowerneck upperneck
    upperneck head
    lclavicle lhumerus
    lhumerus lradius
    lradius lwrist
    lwrist lhand lthumb
    lhand lfingers
    rclavicle rhumerus
    rhumerus rradius
    rradius rwrist
    rwrist rhand rthumb
    rhand rfingers
  end

#!OML:ASF C:\ViconDB\ViconDB\414\Spring2016\041811\Spring2016.ASF
:FULLY-SPECIFIED
:DEGREES
47
root 11.1659 17.8289 28.7991 -172.434 -12.2093 178.762
lowerback 3.15276 0.632599 -2.78513
upperback 1.10863 0.739106 0.9984
thorax -0.678385 0.354061 2.55994
lowerneck -11.7787 -1.40451 -8.57841
upperneck 19.8937 -3.68798 12.4436
head 8.47105 -1.49544 5.23896
rclavicle -3.92103e-014 -1.63003e-014
rhumerus -45.5393 -0.212956 -85.6627
rradius 86.0329
rwrist 17.3276
rhand -40.7894 -14.0066
rfingers 7.12502
rthumb -13.7287 -43.5337
lclavicle -3.92103e-014 -1.63003e-014
lhumerus -46.5382 -12.6048 93.9671
lradius 48.6599
lwrist -20.6453
lhand -29.7683 12.7499
lfingers 7.12502
lthumb -3.09369 42.7072
rfemur -20.8973 -9.867 19.7419
rtibia 37.411
rfoot -168.126 12.2238
rtoes -14.7289
lfemur -0.431782 -11.8126 -16.1797
ltibia 31.6468
lfoot -17.0888 -7.33847
ltoes -20.8963
48
root 11.1675 17.8063 28.7611 -172.22 -12.1506 178.645
lowerback 3.06033 0.591074 -2.81208
upperback 1.14944 0.684996 0.931467
thorax -0.580769 0.324908 2.5093
lowerneck -11.8209 -1.38161 -8.55936
upperneck 19.841 -3.63703 12.4153
head 8.45457 -1.46854 5.23007
rclavicle 2.34566e-014 -3.57812e-015
rhumerus -45.8913 -0.50029 -86.0595
rradius 85.3964
rwrist 17.2771
rhand -39.3884 -13.2099
rfingers 7.12502
rthumb -12.3782 -42.8234
lclavicle 2.34566e-014 -3.57812e-015
lhumerus -46.2019 -13.1114 94.369
lradius 50.0149
lwrist -20.1863
lhand -29.8807 12.8274
lfingers 7.12502
lthumb -3.20226 42.7831
rfemur -21.2553 -9.6924 19.6736
rtibia 37.881
rfoot -168.474 12.3434
rtoes -14.4961
lfemur -0.496374 -11.8121 -16.2739
ltibia 31.7353
lfoot -17.372 -7.35912
ltoes -21.0858
49
root 11.1701 17.779 28.7211 -172.076 -12.2308 178.656
lowerback 3.13159 0.486445 -2.63922
upperback 1.12999 0.547988 0.802707
thorax -0.629051 0.257961 2.28408
lowerneck -11.8821 -1.29622 -8.45152
upperneck 19.8841 -3.58064 12.5446
head 8.47393 -1.42416 5.26386
rclavicle -3.49364e-014 6.36111e-015
rhumerus -46.4167 -0.724947 -86.7493
rradius 84.8231
rwrist 17.4108
rhand -39.3966 -14.4126
rfingers 7.12502
rthumb -12.3861 -44.0256
lclavicle -3.49364e-014 6.36111e-015
lhumerus -45.7562 -13.4627 94.4944
lradius 51.2093
lwrist -20.3899
lhand -29.8394 12.5318
lfingers 7.12502
lthumb -3.16232 42.4881
rfemur -21.5073 -9.68472 19.7272
rtibia 38.3891
rfoot -168.874 12.5903
rtoes -14.2312
lfemur -0.511923 -12.007 -16.2264
ltibia 31.8053
lfoot -17.6577 -7.37173
ltoes -21.1608
50
root 11.1727 17.7661 28.6734 -171.929 -12.3126 178.654
lowerback 3.17357 0.411436 -2.68329
upperback 1.13775 0.445563 0.916698
thorax -0.639688 0.206199 2.42972
lowerneck -11.9884 -1.30519 -8.65377
upperneck 19.9347 -3.51795 12.4675
head 8.50491 -1.40825 5.28181
rclavicle -1.85864e-014 3.57812e-015
rhumerus -47.0008 -0.829716 -86.9816
rradius 84.5656
rwrist 16.4615
rhand -39.2152 -14.3793
rfingers 7.12502
rthumb -12.2112 -44.0029
lclavicle -1.85864e-014 3.57812e-015
lhumerus -45.1512 -14.2283 95.1717
lradius 52.2871
lwrist -20.3832
lhand -30.2567 12.28
lfingers 7.12502
lthumb -3.56537 42.23
rfemur -21.7219 -9.58016 19.7891
rtibia 38.8422
rfoot -169.26 12.744
rtoes -13.6421
lfemur -0.643393 -11.9975 -16.1098
ltibia 31.8871
lfoot -17.7489 -7.57548
ltoes -21.2633
51
root 11.1844 17.7354 28.632 -171.783 -12.412 178.597
lowerback 3.36087 0.304666 -2.62441
upperback 1.09512 0.299072 0.757955
thorax -0.778059 0.136002 2.23818
lowerneck -12.0816 -1.22396 -8.43065
upperneck 20.0035 -3.49739 12.5927
head 8.5416 -1.37302 5.29082
rclavicle -4.61677e-014 -3.97569e-016
rhumerus -47.5203 -1.35652 -87.6527
rradius 84.1373
rwrist 16.0882
rhand -39.005 -14.3323
rfingers 7.12502
rthumb -12.0084 -43.9678
lclavicle -4.61677e-014 -3.97569e-016
lhumerus -44.7482 -14.8934 95.2372
lradius 53.9754
lwrist -20.4653
lhand -30.2183 11.7857
lfingers 7.12502
lthumb -3.52831 41.7363
rfemur -21.9999 -9.32823 19.8046
rtibia 39.3293
rfoot -169.718 12.7946
rtoes -12.9284
lfemur -0.682773 -11.9109 -15.9748
ltibia 32.0048
lfoot -17.924 -8.02947
ltoes -21.0443
52
root 11.1849 17.7037 28.5762 -171.663 -12.647 178.4
lowerback 3.38561 0.261176 -2.61246
upperback 1.15271 0.238164 0.594245
thorax -0.728602 0.103665 2.06565
lowerneck -12.0984 -1.26859 -8.23637
upperneck 19.8511 -3.5773 12.5912
head 8.50115 -1.39386 5.24287
rclavicle 1.90336e-014 3.77691e-015
rhumerus -48.1221 -1.97916 -88.0978
rradius 83.9337
rwrist 15.353
rhand -38.4678 -14.3526
rfingers 7.12502
rthumb -11.4904 -44.0177
lclavicle 1.90336e-014 3.77691e-015
lhumerus -44.2952 -15.9164 95.5672
lradius 55.694
lwrist -20.4675
lhand -30.4132 11.4836
lfingers 7.12502
lthumb -3.71652 41.431
rfemur -22.0684 -9.59177 19.6325
rtibia 39.7926
rfoot -170.044 13.1707
rtoes -12.4029
lfemur -0.597754 -12.27 -16.1782
ltibia 32.1325
lfoot -18.2537 -8.02908
ltoes -21.1428
53
root 11.1955 17.6754 28.5257 -171.523 -12.948 178.556
lowerback 3.51686 0.0610021 -2.58218
upperback 1.08839 -0.028297 0.909764
thorax -0.853021 -0.0272146 2.38396
lowerneck -12.0666 -1.1836 -9.07181
upperneck 19.8046 -3.33906 12.9419
head 8.46624 -1.30791 5.53918
rclavicle 9.19379e-015 -2.38542e-015
rhumerus -48.8575 -1.97076 -88.2174
rradius 83.8766
rwrist 14.8573
rhand -37.9934 -14.8714
rfingers 7.12502
rthumb -11.0329 -44.5615
lclavicle 9.19379e-015 -2.38542e-015
lhumerus -43.9979 -16.2538 96.2847
lradius 57.8424
lwrist -20.061
lhand -30.4432 11.1818
lfingers 7.12502
lthumb -3.74542 41.1286
rfemur -22.3062 -9.50172 19.9261
rtibia 40.2799
rfoot -170.747 13.2342
rtoes -11.7201
lfemur -0.707724 -12.5567 -15.8663
ltibia 32.2392
lfoot -18.4498 -8.12846
ltoes -21.2599
54
root 11.2075 17.6491 28.4722 -171.317 -13.3082 178.528
lowerback 3.60929 -0.144523 -2.57643
upperback 1.04474 -0.303559 0.977887
thorax -0.932492 -0.163004 2.46298
lowerneck -12.1996 -1.09213 -9.14946
upperneck 19.8588 -3.15874 12.8595
head 8.48619 -1.22743 5.54644
rclavicle -4.62174e-015 -9.93923e-015
rhumerus -49.5788 -2.24693 -88.5617
rradius 83.851
rwrist 14.1813
rhand -37.9426 -14.7417
rfingers 7.12502
rthumb -10.9839 -44.4343
lclavicle -4.62174e-015 -9.93923e-015
lhumerus -43.6136 -16.8091 96.619
lradius 60.1076
lwrist -19.2597
lhand -30.5779 10.252
lfingers 7.12502
lthumb -3.87556 40.1965
rfemur -22.5445 -9.56606 20.0277
rtibia 40.716
rfoot -171.326 13.2992
rtoes -11.3655
lfemur -0.871641 -13.0218 -15.776
ltibia 32.3841
lfoot -18.635 -8.0599
ltoes -21.4718
55
root 11.217 17.6157 28.412 -171.251 -13.569 178.521
lowerback 3.79335 -0.249205 -2.5539
upperback 1.05773 -0.447892 1.06102
thorax -1.01271 -0.23511 2.54355
lowerneck -12.34 -1.05581 -9.43404
upperneck 19.869 -3.0597 13.0112
head 8.50863 -1.17968 5.66323
rclavicle -3.16068e-014 1.82882e-014
rhumerus -50.318 -2.57328 -88.8421
rradius 83.9778
rwrist 13.6762
rhand -37.7835 -15.2794
rfingers 7.12502
rthumb -10.8305 -44.9802
lclavicle -3.16068e-014 1.82882e-014
lhumerus -43.2453 -17.3381 97.1334
lradius 62.7038
lwrist -18.8392
lhand -30.4814 10.5099
lfingers 7.12502
lthumb -3.78239 40.4561
rfemur -22.6036 -9.49048 20.1207
rtibia 41.1241
rfoot -171.934 13.4046
rtoes -11.0704
lfemur -0.805241 -13.1866 -15.6968
ltibia 32.56
lfoot -18.886 -8.07415
ltoes -21.8773
56
root 11.2306 17.5979 28.3423 -171.036 -13.9548 178.498
lowerback 3.81792 -0.411382 -2.36714
upperback 1.00928 -0.656957 0.983112
thorax -1.06611 -0.337702 2.36822
lowerneck -12.2498 -0.997549 -9.37535
upperneck 19.7713 -3.01285 13.11
head 8.45334 -1.14872 5.68865
rclavicle 1.90833e-014 -2.78299e-015
rhumerus -51.162 -3.10456 -89.3334
rradius 84.1601
rwrist 12.8519
rhand -37.3027 -15.2396
rfingers 7.12502
rthumb -10.3667 -44.964
lclavicle 1.90833e-014 -2.78299e-015
lhumerus -43.0216 -18.7204 97.4734
lradius 65.3668
lwrist -18.0832
lhand -30.5385 10.9298
lfingers 7.12502
lthumb -3.83747 40.875
rfemur -22.7475 -9.74134 20.2526
rtibia 41.4687
rfoot -172.35 13.6398
rtoes -10.8053
lfemur -1.00709 -13.6102 -15.5247
ltibia 32.749
lfoot -18.9562 -8.15225
ltoes -21.8943
57
root 11.2435 17.5726 28.2683 -170.959 -14.1429 178.568
lowerback 3.94928 -0.505603 -2.28046
upperback 0.985329 -0.781967 1.04151
thorax -1.15722 -0.399072 2.38718
lowerneck -12.1723 -0.942815 -9.48177
upperneck 19.7128 -2.92706 13.1816
head 8.40996 -1.11189 5.73939
rclavicle -8.15017e-015 1.98785e-015
rhumerus -52.0517 -3.48412 -89.6743
rradius 84.2997
rwrist 12.2351
rhand -37.3611 -14.68
rfingers 7.12502
rthumb -10.423 -44.4016
lclavicle -8.15017e-015 1.98785e-015
lhumerus -42.752 -19.4793 97.7009
lradius 68.1876
lwrist -17.8276
lhand -30.5786 10.7328
lfingers 7.12502
lthumb -3.87622 40.6773
rfemur -22.7704 -9.56862 20.4523
rtibia 41.8418
rfoot -172.87 13.6105
rtoes -10.4166
lfemur -1.01433 -13.588 -15.2848
ltibia 32.8992
lfoot -19.0387 -8.33226
ltoes -22.106
58
root 11.257 17.5505 28.1868 -170.647 -14.4117 178.477
lowerback 3.80277 -0.608774 -2.34582
upperback 0.945695 -0.916561 1.1234
thorax -1.1057 -0.465838 2.51269
lowerneck -12.1714 -0.924654 -9.62674
upperneck 19.6396 -2.84874 13.1779
head 8.37679 -1.08141 5.77001
rclavicle -2.41523e-014 -2.78299e-015
rhumerus -52.8099 -3.83635 -89.9068
rradius 84.4014
rwrist 11.907
rhand -37.5085 -14.9958
rfingers 7.12502
rthumb -10.5652 -44.7102
lclavicle -2.41523e-014 -2.78299e-015
lhumerus -42.4345 -20.3209 98.0905
lradius 71.0626
lwrist -17.2397
lhand -30.7493 10.647
lfingers 7.12502
lthumb -4.04103 40.5885
rfemur -22.958 -9.66695 20.5078
rtibia 42.1686
rfoot -173.242 13.8233
rtoes -10.1331
lfemur -1.23242 -13.8561 -15.2638
ltibia 33.0728
lfoot -19.107 -8.14092
ltoes -22.6263
59
root 11.272 17.507 28.106 -170.741 -14.3415 178.546
lowerback 4.03901 -0.605888 -2.34541
upperback 0.958781 -0.919255 1.18547
thorax -1.22323 -0.4667 2.58008
lowerneck -12.0791 -0.851463 -9.71984
upperneck 19.6829 -2.74358 13.1843
head 8.36065 -1.04279 5.80035
rclavicle 9.0447e-015 -5.56597e-015
rhumerus -53.7046 -4.16373 -90.1474
rradius 84.5296
rwrist 11.5943
rhand -37.7019 -14.6857
rfingers 7.12502
rthumb -10.7517 -44.3906
lclavicle 9.0447e-015 -5.56597e-015
lhumerus -42.1232 -20.9548 98.3481
lradius 73.8342
lwrist -16.904
lhand -30.8041 10.3922
lfingers 7.12502
lthumb -4.09401 40.3326
rfemur -22.8007 -9.40205 20.6849
rtibia 42.5056
rfoot -173.675 13.9198
rtoes -9.85443
lfemur -0.808789 -13.8246 -15.1953
ltibia 33.2096
lfoot -19.2339 -7.93279
ltoes -23.0355
60
root 11.2925 17.4845 28.0142 -170.544 -14.4011 178.392
lowerback 3.98536 -0.672412 -2.52797
upperback 0.951867 -1.01341 1.17762
thorax -1.19139 -0.513289 2.67842
lowerneck -12.1226 -0.743568 -9.71768
upperneck 19.7336 -2.59984 13.2064
head 8.36659 -0.971707 5.82505
rclavicle -2.04748e-014 2.38542e-015
rhumerus -54.4161 -4.43344 -90.569
rradius 84.5225
rwrist 11.6324
rhand -38.0657 -15.0867
rfingers 7.12502
rthumb -11.1026 -44.773
lclavicle -2.04748e-014 2.38542e-015
lhumerus -41.7595 -21.4061 98.3539
lradius 76.7227
lwrist -16.9213
lhand -31.0563 10.1706
lfingers 7.12502
lthumb -4.33752 40.1062
rfemur -22.7693 -9.30837 20.6669
rtibia 42.7401
rfoot -174.125 14.0127
rtoes -9.46618
lfemur -0.733336 -14.0272 -15.2658
ltibia 33.3292
lfoot -19.1801 -7.75099
ltoes -23.3795
